<svg width="877" height="116" viewBox="0 0 877 116" fill="none" xmlns="http://www.w3.org/2000/svg">
<path d="M218.976 105.576C216.48 105.576 214.212 104.988 212.172 103.812C210.132 102.636 208.524 101.028 207.348 98.988C206.196 96.924 205.62 94.632 205.62 92.112C205.62 89.592 206.196 87.312 207.348 85.272C208.524 83.208 210.132 81.588 212.172 80.412C214.212 79.236 216.48 78.648 218.976 78.648C220.896 78.648 222.648 79.02 224.232 79.764C225.84 80.484 227.232 81.516 228.408 82.86L226.212 84.984C225.228 83.808 224.148 82.944 222.972 82.392C221.82 81.84 220.488 81.564 218.976 81.564C217.104 81.564 215.388 82.008 213.828 82.896C212.268 83.76 211.02 84.996 210.084 86.604C209.172 88.188 208.716 90.024 208.716 92.112C208.716 94.2 209.172 96.048 210.084 97.656C211.02 99.24 212.268 100.476 213.828 101.364C215.388 102.228 217.104 102.66 218.976 102.66C222.096 102.66 224.748 101.376 226.932 98.808L229.164 100.968C227.964 102.384 226.488 103.512 224.736 104.352C222.984 105.168 221.064 105.576 218.976 105.576ZM232.6 79.224H235.66V105H232.6V79.224ZM248.478 105.576C246.678 105.576 245.058 105.144 243.618 104.28C242.178 103.416 241.05 102.24 240.234 100.752C239.442 99.264 239.046 97.62 239.046 95.82C239.046 94.02 239.442 92.376 240.234 90.888C241.05 89.4 242.178 88.224 243.618 87.36C245.058 86.496 246.678 86.064 248.478 86.064C250.278 86.064 251.898 86.496 253.338 87.36C254.778 88.224 255.894 89.4 256.686 90.888C257.502 92.376 257.91 94.02 257.91 95.82C257.91 97.62 257.502 99.264 256.686 100.752C255.894 102.24 254.778 103.416 253.338 104.28C251.898 105.144 250.278 105.576 248.478 105.576ZM248.478 102.804C249.606 102.804 250.65 102.528 251.61 101.976C252.594 101.4 253.374 100.584 253.95 99.528C254.55 98.472 254.85 97.236 254.85 95.82C254.85 94.404 254.55 93.168 253.95 92.112C253.374 91.056 252.594 90.252 251.61 89.7C250.65 89.124 249.606 88.836 248.478 88.836C247.35 88.836 246.294 89.124 245.31 89.7C244.326 90.252 243.534 91.056 242.934 92.112C242.358 93.168 242.07 94.404 242.07 95.82C242.07 97.236 242.358 98.472 242.934 99.528C243.534 100.584 244.326 101.4 245.31 101.976C246.294 102.528 247.35 102.804 248.478 102.804ZM267.948 105.576C265.74 105.576 264.048 104.928 262.872 103.632C261.72 102.336 261.144 100.524 261.144 98.196V86.64H264.204V97.728C264.204 99.48 264.6 100.764 265.392 101.58C266.184 102.396 267.252 102.804 268.596 102.804C269.628 102.804 270.54 102.528 271.332 101.976C272.148 101.424 272.772 100.704 273.204 99.816C273.66 98.928 273.888 97.992 273.888 97.008V86.64H276.948V105H274.032V102.336H273.888C273.384 103.248 272.58 104.016 271.476 104.64C270.372 105.264 269.196 105.576 267.948 105.576ZM289.067 105.576C287.435 105.576 285.947 105.156 284.603 104.316C283.283 103.476 282.239 102.324 281.471 100.86C280.703 99.372 280.319 97.692 280.319 95.82C280.319 93.972 280.703 92.304 281.471 90.816C282.239 89.328 283.283 88.164 284.603 87.324C285.947 86.484 287.435 86.064 289.067 86.064C290.483 86.064 291.743 86.388 292.847 87.036C293.951 87.66 294.791 88.44 295.367 89.376H295.511L295.367 86.82V79.224H298.427V105H295.511V102.3H295.367C294.791 103.212 293.951 103.992 292.847 104.64C291.743 105.264 290.483 105.576 289.067 105.576ZM289.427 102.804C290.507 102.804 291.503 102.516 292.415 101.94C293.351 101.364 294.095 100.548 294.647 99.492C295.223 98.436 295.511 97.212 295.511 95.82C295.511 94.428 295.223 93.204 294.647 92.148C294.095 91.092 293.351 90.276 292.415 89.7C291.503 89.124 290.507 88.836 289.427 88.836C288.371 88.836 287.375 89.124 286.439 89.7C285.503 90.276 284.747 91.104 284.171 92.184C283.619 93.24 283.343 94.452 283.343 95.82C283.343 97.188 283.619 98.412 284.171 99.492C284.747 100.548 285.503 101.364 286.439 101.94C287.375 102.516 288.371 102.804 289.427 102.804Z" fill="#4285F4"/>
<path d="M315.923 97.404C314.819 97.404 313.859 97.008 313.043 96.216C312.251 95.4 311.855 94.44 311.855 93.336C311.855 92.208 312.251 91.248 313.043 90.456C313.859 89.664 314.819 89.268 315.923 89.268C317.027 89.268 317.975 89.676 318.767 90.492C319.559 91.284 319.955 92.232 319.955 93.336C319.955 94.44 319.559 95.4 318.767 96.216C317.975 97.008 317.027 97.404 315.923 97.404ZM334.005 79.224H337.029V92.796H337.173L348.801 79.224H352.725V79.368L343.185 90.384L353.409 104.856V105H349.701L341.133 92.724L337.029 97.44V105H334.005V79.224ZM363.65 105.576C361.85 105.576 360.23 105.144 358.79 104.28C357.35 103.416 356.222 102.24 355.406 100.752C354.614 99.264 354.218 97.62 354.218 95.82C354.218 94.02 354.614 92.376 355.406 90.888C356.222 89.4 357.35 88.224 358.79 87.36C360.23 86.496 361.85 86.064 363.65 86.064C365.45 86.064 367.07 86.496 368.51 87.36C369.95 88.224 371.066 89.4 371.858 90.888C372.674 92.376 373.082 94.02 373.082 95.82C373.082 97.62 372.674 99.264 371.858 100.752C371.066 102.24 369.95 103.416 368.51 104.28C367.07 105.144 365.45 105.576 363.65 105.576ZM363.65 102.804C364.778 102.804 365.822 102.528 366.782 101.976C367.766 101.4 368.546 100.584 369.122 99.528C369.722 98.472 370.022 97.236 370.022 95.82C370.022 94.404 369.722 93.168 369.122 92.112C368.546 91.056 367.766 90.252 366.782 89.7C365.822 89.124 364.778 88.836 363.65 88.836C362.522 88.836 361.466 89.124 360.482 89.7C359.498 90.252 358.706 91.056 358.106 92.112C357.53 93.168 357.242 94.404 357.242 95.82C357.242 97.236 357.53 98.472 358.106 99.528C358.706 100.584 359.498 101.4 360.482 101.976C361.466 102.528 362.522 102.804 363.65 102.804ZM376.459 79.224H379.519V105H376.459V79.224ZM384.053 79.224H387.113V95.424L395.753 86.64H399.641V86.784L392.441 94.056L399.821 104.856V105H396.185L390.281 96.18L387.113 99.348V105H384.053V79.224ZM407.745 105.576C406.401 105.576 405.201 105.312 404.145 104.784C403.089 104.256 402.273 103.536 401.697 102.624C401.121 101.688 400.833 100.632 400.833 99.456C400.833 97.512 401.565 96 403.029 94.92C404.493 93.816 406.341 93.264 408.573 93.264C409.677 93.264 410.697 93.384 411.633 93.624C412.593 93.864 413.325 94.14 413.829 94.452V93.336C413.829 91.968 413.349 90.876 412.389 90.06C411.429 89.22 410.217 88.8 408.753 88.8C407.721 88.8 406.773 89.028 405.909 89.484C405.045 89.916 404.361 90.528 403.857 91.32L401.553 89.592C402.273 88.488 403.257 87.624 404.505 87C405.777 86.376 407.181 86.064 408.717 86.064C411.213 86.064 413.169 86.724 414.585 88.044C416.025 89.34 416.745 91.116 416.745 93.372V105H413.829V102.372H413.685C413.157 103.26 412.365 104.016 411.309 104.64C410.253 105.264 409.065 105.576 407.745 105.576ZM408.033 102.876C409.065 102.876 410.025 102.612 410.913 102.084C411.801 101.556 412.509 100.848 413.037 99.96C413.565 99.072 413.829 98.1 413.829 97.044C413.253 96.66 412.545 96.348 411.705 96.108C410.865 95.868 409.977 95.748 409.041 95.748C407.361 95.748 406.089 96.096 405.225 96.792C404.385 97.488 403.965 98.388 403.965 99.492C403.965 100.5 404.349 101.316 405.117 101.94C405.885 102.564 406.857 102.876 408.033 102.876ZM427.707 105.288C426.963 105.288 426.267 105.168 425.619 104.928C424.995 104.688 424.467 104.364 424.035 103.956C423.555 103.5 423.195 102.972 422.955 102.372C422.715 101.772 422.595 101.04 422.595 100.176V89.412H419.391V86.64H422.595V81.456H425.655V86.64H430.119V89.412H425.655V99.42C425.655 100.428 425.847 101.172 426.231 101.652C426.687 102.18 427.347 102.444 428.211 102.444C428.907 102.444 429.579 102.24 430.227 101.832V104.82C429.867 104.988 429.495 105.108 429.111 105.18C428.751 105.252 428.283 105.288 427.707 105.288ZM439.351 105.576C438.007 105.576 436.807 105.312 435.751 104.784C434.695 104.256 433.879 103.536 433.303 102.624C432.727 101.688 432.439 100.632 432.439 99.456C432.439 97.512 433.171 96 434.635 94.92C436.099 93.816 437.947 93.264 440.179 93.264C441.283 93.264 442.303 93.384 443.239 93.624C444.199 93.864 444.931 94.14 445.435 94.452V93.336C445.435 91.968 444.955 90.876 443.995 90.06C443.035 89.22 441.823 88.8 440.359 88.8C439.327 88.8 438.379 89.028 437.515 89.484C436.651 89.916 435.967 90.528 435.463 91.32L433.159 89.592C433.879 88.488 434.863 87.624 436.111 87C437.383 86.376 438.787 86.064 440.323 86.064C442.819 86.064 444.775 86.724 446.191 88.044C447.631 89.34 448.351 91.116 448.351 93.372V105H445.435V102.372H445.291C444.763 103.26 443.971 104.016 442.915 104.64C441.859 105.264 440.671 105.576 439.351 105.576ZM439.639 102.876C440.671 102.876 441.631 102.612 442.519 102.084C443.407 101.556 444.115 100.848 444.643 99.96C445.171 99.072 445.435 98.1 445.435 97.044C444.859 96.66 444.151 96.348 443.311 96.108C442.471 95.868 441.583 95.748 440.647 95.748C438.967 95.748 437.695 96.096 436.831 96.792C435.991 97.488 435.571 98.388 435.571 99.492C435.571 100.5 435.955 101.316 436.723 101.94C437.491 102.564 438.463 102.876 439.639 102.876Z" fill="#676C72"/>
<path d="M227.712 55.912C223.874 55.912 220.34 54.981 217.11 53.119C213.88 51.257 211.315 48.692 209.415 45.424C207.515 42.156 206.565 38.546 206.565 34.594C206.565 30.642 207.515 27.032 209.415 23.764C211.315 20.496 213.88 17.931 217.11 16.069C220.34 14.207 223.874 13.276 227.712 13.276C230.714 13.276 233.526 13.808 236.148 14.872C238.808 15.936 240.993 17.437 242.703 19.375L239.226 22.852C237.934 21.256 236.281 20.04 234.267 19.204C232.253 18.33 230.087 17.893 227.769 17.893C224.881 17.893 222.183 18.596 219.675 20.002C217.205 21.37 215.21 23.327 213.69 25.873C212.208 28.381 211.467 31.288 211.467 34.594C211.467 37.9 212.208 40.826 213.69 43.372C215.21 45.88 217.224 47.837 219.732 49.243C222.24 50.611 224.919 51.295 227.769 51.295C230.505 51.295 232.785 50.877 234.609 50.041C236.471 49.167 238.067 48.027 239.397 46.621C240.385 45.557 241.183 44.284 241.791 42.802C242.399 41.282 242.779 39.61 242.931 37.786H227.826V33.283H247.434C247.624 34.347 247.719 35.335 247.719 36.247C247.719 38.755 247.32 41.206 246.522 43.6C245.724 45.956 244.451 48.027 242.703 49.813C238.941 53.879 233.944 55.912 227.712 55.912ZM267.076 55.912C264.226 55.912 261.661 55.228 259.381 53.86C257.101 52.492 255.315 50.63 254.023 48.274C252.769 45.918 252.142 43.315 252.142 40.465C252.142 37.615 252.769 35.012 254.023 32.656C255.315 30.3 257.101 28.438 259.381 27.07C261.661 25.702 264.226 25.018 267.076 25.018C269.926 25.018 272.491 25.702 274.771 27.07C277.051 28.438 278.818 30.3 280.072 32.656C281.364 35.012 282.01 37.615 282.01 40.465C282.01 43.315 281.364 45.918 280.072 48.274C278.818 50.63 277.051 52.492 274.771 53.86C272.491 55.228 269.926 55.912 267.076 55.912ZM267.076 51.523C268.862 51.523 270.515 51.086 272.035 50.212C273.593 49.3 274.828 48.008 275.74 46.336C276.69 44.664 277.165 42.707 277.165 40.465C277.165 38.223 276.69 36.266 275.74 34.594C274.828 32.922 273.593 31.649 272.035 30.775C270.515 29.863 268.862 29.407 267.076 29.407C265.29 29.407 263.618 29.863 262.06 30.775C260.502 31.649 259.248 32.922 258.298 34.594C257.386 36.266 256.93 38.223 256.93 40.465C256.93 42.707 257.386 44.664 258.298 46.336C259.248 48.008 260.502 49.3 262.06 50.212C263.618 51.086 265.29 51.523 267.076 51.523ZM301.031 55.912C298.181 55.912 295.616 55.228 293.336 53.86C291.056 52.492 289.27 50.63 287.978 48.274C286.724 45.918 286.097 43.315 286.097 40.465C286.097 37.615 286.724 35.012 287.978 32.656C289.27 30.3 291.056 28.438 293.336 27.07C295.616 25.702 298.181 25.018 301.031 25.018C303.881 25.018 306.446 25.702 308.726 27.07C311.006 28.438 312.773 30.3 314.027 32.656C315.319 35.012 315.965 37.615 315.965 40.465C315.965 43.315 315.319 45.918 314.027 48.274C312.773 50.63 311.006 52.492 308.726 53.86C306.446 55.228 303.881 55.912 301.031 55.912ZM301.031 51.523C302.817 51.523 304.47 51.086 305.99 50.212C307.548 49.3 308.783 48.008 309.695 46.336C310.645 44.664 311.12 42.707 311.12 40.465C311.12 38.223 310.645 36.266 309.695 34.594C308.783 32.922 307.548 31.649 305.99 30.775C304.47 29.863 302.817 29.407 301.031 29.407C299.245 29.407 297.573 29.863 296.015 30.775C294.457 31.649 293.203 32.922 292.253 34.594C291.341 36.266 290.885 38.223 290.885 40.465C290.885 42.707 291.341 44.664 292.253 46.336C293.203 48.008 294.457 49.3 296.015 50.212C297.573 51.086 299.245 51.523 301.031 51.523ZM334.359 68.224C330.939 68.224 328.108 67.426 325.866 65.83C323.662 64.234 322.18 62.315 321.42 60.073L325.809 58.192C326.455 59.864 327.519 61.213 329.001 62.239C330.521 63.303 332.307 63.835 334.359 63.835C337.361 63.835 339.679 62.961 341.313 61.213C342.985 59.465 343.821 56.995 343.821 53.803V50.554H343.593C342.643 52.036 341.294 53.252 339.546 54.202C337.836 55.114 335.879 55.57 333.675 55.57C331.167 55.57 328.868 54.924 326.778 53.632C324.726 52.34 323.092 50.535 321.876 48.217C320.66 45.899 320.052 43.258 320.052 40.294C320.052 37.368 320.66 34.746 321.876 32.428C323.092 30.072 324.726 28.248 326.778 26.956C328.868 25.664 331.167 25.018 333.675 25.018C335.879 25.018 337.836 25.493 339.546 26.443C341.294 27.355 342.643 28.571 343.593 30.091H343.821V25.93H348.438V53.86C348.438 58.534 347.146 62.087 344.562 64.519C341.978 66.989 338.577 68.224 334.359 68.224ZM334.359 51.181C336.107 51.181 337.684 50.744 339.09 49.87C340.534 48.996 341.674 47.742 342.51 46.108C343.384 44.474 343.821 42.536 343.821 40.294C343.821 38.014 343.384 36.057 342.51 34.423C341.674 32.789 340.534 31.554 339.09 30.718C337.684 29.844 336.107 29.407 334.359 29.407C332.611 29.407 331.015 29.844 329.571 30.718C328.127 31.592 326.968 32.846 326.094 34.48C325.258 36.114 324.84 38.052 324.84 40.294C324.84 42.536 325.258 44.493 326.094 46.165C326.968 47.799 328.127 49.053 329.571 49.927C331.015 50.763 332.611 51.181 334.359 51.181ZM355.602 14.188H360.447V55H355.602V14.188ZM380.286 55.912C377.512 55.912 375.023 55.247 372.819 53.917C370.615 52.587 368.886 50.763 367.632 48.445C366.416 46.089 365.808 43.448 365.808 40.522C365.808 37.71 366.378 35.126 367.518 32.77C368.696 30.414 370.349 28.533 372.477 27.127C374.605 25.721 377.075 25.018 379.887 25.018C382.737 25.018 385.207 25.664 387.297 26.956C389.387 28.21 390.983 29.958 392.085 32.2C393.225 34.442 393.795 37.007 393.795 39.895C393.795 40.465 393.738 40.959 393.624 41.377H370.653C370.767 43.581 371.299 45.443 372.249 46.963C373.199 48.483 374.396 49.623 375.84 50.383C377.322 51.143 378.861 51.523 380.457 51.523C384.181 51.523 387.05 49.775 389.064 46.279L393.168 48.274C391.914 50.63 390.204 52.492 388.038 53.86C385.91 55.228 383.326 55.912 380.286 55.912ZM388.665 37.387C388.589 36.171 388.247 34.955 387.639 33.739C387.031 32.523 386.062 31.497 384.732 30.661C383.44 29.825 381.806 29.407 379.83 29.407C377.55 29.407 375.612 30.148 374.016 31.63C372.458 33.074 371.432 34.993 370.938 37.387H388.665ZM413.682 14.188H425.994C430.174 14.188 433.822 15.062 436.938 16.81C440.054 18.52 442.448 20.914 444.12 23.992C445.792 27.07 446.628 30.604 446.628 34.594C446.628 38.584 445.792 42.118 444.12 45.196C442.448 48.274 440.054 50.687 436.938 52.435C433.822 54.145 430.174 55 425.994 55H413.682V14.188ZM425.994 50.383C430.82 50.383 434.639 48.996 437.451 46.222C440.301 43.448 441.726 39.572 441.726 34.594C441.726 29.616 440.301 25.74 437.451 22.966C434.639 20.192 430.82 18.805 425.994 18.805H418.47V50.383H425.994ZM464.895 55.912C462.121 55.912 459.632 55.247 457.428 53.917C455.224 52.587 453.495 50.763 452.241 48.445C451.025 46.089 450.417 43.448 450.417 40.522C450.417 37.71 450.987 35.126 452.127 32.77C453.305 30.414 454.958 28.533 457.086 27.127C459.214 25.721 461.684 25.018 464.496 25.018C467.346 25.018 469.816 25.664 471.906 26.956C473.996 28.21 475.592 29.958 476.694 32.2C477.834 34.442 478.404 37.007 478.404 39.895C478.404 40.465 478.347 40.959 478.233 41.377H455.262C455.376 43.581 455.908 45.443 456.858 46.963C457.808 48.483 459.005 49.623 460.449 50.383C461.931 51.143 463.47 51.523 465.066 51.523C468.79 51.523 471.659 49.775 473.673 46.279L477.777 48.274C476.523 50.63 474.813 52.492 472.647 53.86C470.519 55.228 467.935 55.912 464.895 55.912ZM473.274 37.387C473.198 36.171 472.856 34.955 472.248 33.739C471.64 32.523 470.671 31.497 469.341 30.661C468.049 29.825 466.415 29.407 464.439 29.407C462.159 29.407 460.221 30.148 458.625 31.63C457.067 33.074 456.041 34.993 455.547 37.387H473.274ZM480.326 25.93H485.513L494.519 49.3H494.633L503.753 25.93H508.826L496.97 55H492.068L480.326 25.93ZM524.901 55.912C522.127 55.912 519.638 55.247 517.434 53.917C515.23 52.587 513.501 50.763 512.247 48.445C511.031 46.089 510.423 43.448 510.423 40.522C510.423 37.71 510.993 35.126 512.133 32.77C513.311 30.414 514.964 28.533 517.092 27.127C519.22 25.721 521.69 25.018 524.502 25.018C527.352 25.018 529.822 25.664 531.912 26.956C534.002 28.21 535.598 29.958 536.7 32.2C537.84 34.442 538.41 37.007 538.41 39.895C538.41 40.465 538.353 40.959 538.239 41.377H515.268C515.382 43.581 515.914 45.443 516.864 46.963C517.814 48.483 519.011 49.623 520.455 50.383C521.937 51.143 523.476 51.523 525.072 51.523C528.796 51.523 531.665 49.775 533.679 46.279L537.783 48.274C536.529 50.63 534.819 52.492 532.653 53.86C530.525 55.228 527.941 55.912 524.901 55.912ZM533.28 37.387C533.204 36.171 532.862 34.955 532.254 33.739C531.646 32.523 530.677 31.497 529.347 30.661C528.055 29.825 526.421 29.407 524.445 29.407C522.165 29.407 520.227 30.148 518.631 31.63C517.073 33.074 516.047 34.993 515.553 37.387H533.28ZM544.08 14.188H548.925V55H544.08V14.188ZM569.22 55.912C566.37 55.912 563.805 55.228 561.525 53.86C559.245 52.492 557.459 50.63 556.167 48.274C554.913 45.918 554.286 43.315 554.286 40.465C554.286 37.615 554.913 35.012 556.167 32.656C557.459 30.3 559.245 28.438 561.525 27.07C563.805 25.702 566.37 25.018 569.22 25.018C572.07 25.018 574.635 25.702 576.915 27.07C579.195 28.438 580.962 30.3 582.216 32.656C583.508 35.012 584.154 37.615 584.154 40.465C584.154 43.315 583.508 45.918 582.216 48.274C580.962 50.63 579.195 52.492 576.915 53.86C574.635 55.228 572.07 55.912 569.22 55.912ZM569.22 51.523C571.006 51.523 572.659 51.086 574.179 50.212C575.737 49.3 576.972 48.008 577.884 46.336C578.834 44.664 579.309 42.707 579.309 40.465C579.309 38.223 578.834 36.266 577.884 34.594C576.972 32.922 575.737 31.649 574.179 30.775C572.659 29.863 571.006 29.407 569.22 29.407C567.434 29.407 565.762 29.863 564.204 30.775C562.646 31.649 561.392 32.922 560.442 34.594C559.53 36.266 559.074 38.223 559.074 40.465C559.074 42.707 559.53 44.664 560.442 46.336C561.392 48.008 562.646 49.3 564.204 50.212C565.762 51.086 567.434 51.523 569.22 51.523ZM589.274 25.93H593.891V30.262H594.119C594.993 28.78 596.304 27.545 598.052 26.557C599.838 25.531 601.833 25.018 604.037 25.018C606.621 25.018 608.977 25.683 611.105 27.013C613.233 28.343 614.905 30.186 616.121 32.542C617.337 34.898 617.945 37.539 617.945 40.465C617.945 43.429 617.337 46.089 616.121 48.445C614.905 50.763 613.233 52.587 611.105 53.917C608.977 55.247 606.621 55.912 604.037 55.912C601.833 55.912 599.838 55.418 598.052 54.43C596.304 53.404 594.993 52.169 594.119 50.725H593.891L594.119 54.715V67.312H589.274V25.93ZM603.467 51.523C605.139 51.523 606.716 51.067 608.198 50.155C609.68 49.243 610.858 47.951 611.732 46.279C612.644 44.569 613.1 42.631 613.1 40.465C613.1 38.299 612.644 36.38 611.732 34.708C610.858 32.998 609.68 31.687 608.198 30.775C606.716 29.863 605.139 29.407 603.467 29.407C601.795 29.407 600.218 29.863 598.736 30.775C597.254 31.687 596.076 32.979 595.202 34.651C594.328 36.323 593.891 38.261 593.891 40.465C593.891 42.669 594.328 44.607 595.202 46.279C596.076 47.951 597.254 49.243 598.736 50.155C600.218 51.067 601.795 51.523 603.467 51.523ZM636.508 55.912C633.734 55.912 631.245 55.247 629.041 53.917C626.837 52.587 625.108 50.763 623.854 48.445C622.638 46.089 622.03 43.448 622.03 40.522C622.03 37.71 622.6 35.126 623.74 32.77C624.918 30.414 626.571 28.533 628.699 27.127C630.827 25.721 633.297 25.018 636.109 25.018C638.959 25.018 641.429 25.664 643.519 26.956C645.609 28.21 647.205 29.958 648.307 32.2C649.447 34.442 650.017 37.007 650.017 39.895C650.017 40.465 649.96 40.959 649.846 41.377H626.875C626.989 43.581 627.521 45.443 628.471 46.963C629.421 48.483 630.618 49.623 632.062 50.383C633.544 51.143 635.083 51.523 636.679 51.523C640.403 51.523 643.272 49.775 645.286 46.279L649.39 48.274C648.136 50.63 646.426 52.492 644.26 53.86C642.132 55.228 639.548 55.912 636.508 55.912ZM644.887 37.387C644.811 36.171 644.469 34.955 643.861 33.739C643.253 32.523 642.284 31.497 640.954 30.661C639.662 29.825 638.028 29.407 636.052 29.407C633.772 29.407 631.834 30.148 630.238 31.63C628.68 33.074 627.654 34.993 627.16 37.387H644.887ZM655.687 25.93H660.304V30.604H660.532C661.102 29.008 662.204 27.697 663.838 26.671C665.472 25.607 667.182 25.075 668.968 25.075C670.298 25.075 671.438 25.265 672.388 25.645V30.889C671.172 30.281 669.804 29.977 668.284 29.977C666.878 29.977 665.586 30.376 664.408 31.174C663.23 31.972 662.28 33.055 661.558 34.423C660.874 35.753 660.532 37.197 660.532 38.755V55H655.687V25.93ZM709.317 55.912C705.479 55.912 701.945 54.981 698.715 53.119C695.485 51.257 692.92 48.692 691.02 45.424C689.12 42.156 688.17 38.546 688.17 34.594C688.17 30.642 689.12 27.032 691.02 23.764C692.92 20.496 695.485 17.931 698.715 16.069C701.945 14.207 705.479 13.276 709.317 13.276C712.319 13.276 715.131 13.808 717.753 14.872C720.413 15.936 722.598 17.437 724.308 19.375L720.831 22.852C719.539 21.256 717.886 20.04 715.872 19.204C713.858 18.33 711.692 17.893 709.374 17.893C706.486 17.893 703.788 18.596 701.28 20.002C698.81 21.37 696.815 23.327 695.295 25.873C693.813 28.381 693.072 31.288 693.072 34.594C693.072 37.9 693.813 40.826 695.295 43.372C696.815 45.88 698.829 47.837 701.337 49.243C703.845 50.611 706.524 51.295 709.374 51.295C712.11 51.295 714.39 50.877 716.214 50.041C718.076 49.167 719.672 48.027 721.002 46.621C721.99 45.557 722.788 44.284 723.396 42.802C724.004 41.282 724.384 39.61 724.536 37.786H709.431V33.283H729.039C729.229 34.347 729.324 35.335 729.324 36.247C729.324 38.755 728.925 41.206 728.127 43.6C727.329 45.956 726.056 48.027 724.308 49.813C720.546 53.879 715.549 55.912 709.317 55.912ZM734.451 25.93H739.068V30.604H739.296C739.866 29.008 740.968 27.697 742.602 26.671C744.236 25.607 745.946 25.075 747.732 25.075C749.062 25.075 750.202 25.265 751.152 25.645V30.889C749.936 30.281 748.568 29.977 747.048 29.977C745.642 29.977 744.35 30.376 743.172 31.174C741.994 31.972 741.044 33.055 740.322 34.423C739.638 35.753 739.296 37.197 739.296 38.755V55H734.451V25.93ZM767.496 55.912C764.646 55.912 762.081 55.228 759.801 53.86C757.521 52.492 755.735 50.63 754.443 48.274C753.189 45.918 752.562 43.315 752.562 40.465C752.562 37.615 753.189 35.012 754.443 32.656C755.735 30.3 757.521 28.438 759.801 27.07C762.081 25.702 764.646 25.018 767.496 25.018C770.346 25.018 772.911 25.702 775.191 27.07C777.471 28.438 779.238 30.3 780.492 32.656C781.784 35.012 782.43 37.615 782.43 40.465C782.43 43.315 781.784 45.918 780.492 48.274C779.238 50.63 777.471 52.492 775.191 53.86C772.911 55.228 770.346 55.912 767.496 55.912ZM767.496 51.523C769.282 51.523 770.935 51.086 772.455 50.212C774.013 49.3 775.248 48.008 776.16 46.336C777.11 44.664 777.585 42.707 777.585 40.465C777.585 38.223 777.11 36.266 776.16 34.594C775.248 32.922 774.013 31.649 772.455 30.775C770.935 29.863 769.282 29.407 767.496 29.407C765.71 29.407 764.038 29.863 762.48 30.775C760.922 31.649 759.668 32.922 758.718 34.594C757.806 36.266 757.35 38.223 757.35 40.465C757.35 42.707 757.806 44.664 758.718 46.336C759.668 48.008 760.922 49.3 762.48 50.212C764.038 51.086 765.71 51.523 767.496 51.523ZM798.323 55.912C794.827 55.912 792.148 54.886 790.286 52.834C788.462 50.782 787.55 47.913 787.55 44.227V25.93H792.395V43.486C792.395 46.26 793.022 48.293 794.276 49.585C795.53 50.877 797.221 51.523 799.349 51.523C800.983 51.523 802.427 51.086 803.681 50.212C804.973 49.338 805.961 48.198 806.645 46.792C807.367 45.386 807.728 43.904 807.728 42.346V25.93H812.573V55H807.956V50.782H807.728C806.93 52.226 805.657 53.442 803.909 54.43C802.161 55.418 800.299 55.912 798.323 55.912ZM819.501 25.93H824.118V30.262H824.346C825.22 28.78 826.531 27.545 828.279 26.557C830.065 25.531 832.06 25.018 834.264 25.018C836.848 25.018 839.204 25.683 841.332 27.013C843.46 28.343 845.132 30.186 846.348 32.542C847.564 34.898 848.172 37.539 848.172 40.465C848.172 43.429 847.564 46.089 846.348 48.445C845.132 50.763 843.46 52.587 841.332 53.917C839.204 55.247 836.848 55.912 834.264 55.912C832.06 55.912 830.065 55.418 828.279 54.43C826.531 53.404 825.22 52.169 824.346 50.725H824.118L824.346 54.715V67.312H819.501V25.93ZM833.694 51.523C835.366 51.523 836.943 51.067 838.425 50.155C839.907 49.243 841.085 47.951 841.959 46.279C842.871 44.569 843.327 42.631 843.327 40.465C843.327 38.299 842.871 36.38 841.959 34.708C841.085 32.998 839.907 31.687 838.425 30.775C836.943 29.863 835.366 29.407 833.694 29.407C832.022 29.407 830.445 29.863 828.963 30.775C827.481 31.687 826.303 32.979 825.429 34.651C824.555 36.323 824.118 38.261 824.118 40.465C824.118 42.669 824.555 44.607 825.429 46.279C826.303 47.951 827.481 49.243 828.963 50.155C830.445 51.067 832.022 51.523 833.694 51.523ZM863.663 55.912C860.547 55.912 857.944 55.19 855.854 53.746C853.764 52.264 852.282 50.383 851.408 48.103L855.74 46.165C856.462 47.913 857.526 49.262 858.932 50.212C860.376 51.162 861.953 51.637 863.663 51.637C865.487 51.637 867.045 51.276 868.337 50.554C869.629 49.794 870.275 48.73 870.275 47.362C870.275 46.146 869.762 45.177 868.736 44.455C867.71 43.695 866.095 43.049 863.891 42.517L860.357 41.605C858.039 41.035 856.139 40.066 854.657 38.698C853.175 37.33 852.434 35.563 852.434 33.397C852.434 31.725 852.928 30.262 853.916 29.008C854.942 27.716 856.291 26.728 857.963 26.044C859.635 25.36 861.44 25.018 863.378 25.018C865.924 25.018 868.185 25.569 870.161 26.671C872.175 27.773 873.6 29.312 874.436 31.288L870.218 33.226C868.926 30.642 866.627 29.35 863.321 29.35C861.725 29.35 860.319 29.73 859.103 30.49C857.925 31.212 857.336 32.143 857.336 33.283C857.336 34.347 857.754 35.221 858.59 35.905C859.426 36.551 860.68 37.083 862.352 37.501L866.57 38.584C869.42 39.306 871.567 40.389 873.011 41.833C874.455 43.239 875.177 44.968 875.177 47.02C875.177 48.806 874.664 50.383 873.638 51.751C872.612 53.081 871.225 54.107 869.477 54.829C867.729 55.551 865.791 55.912 863.663 55.912Z" fill="#676C72"/>
<circle cx="63.4807" cy="26.965" r="14.3967" fill="#E84435"/>
<rect x="6.95117" y="43.1367" width="56.1243" height="28.614" transform="rotate(-29.9941 6.95117 43.1367)" fill="#E84435"/>
<circle cx="63.4807" cy="83.6975" r="14.3967" fill="#4285F4"/>
<circle cx="14.3967" cy="55.5451" r="14.3967" fill="#4285F4"/>
<rect x="23.2559" y="43.7637" width="55.278" height="28.7681" transform="rotate(30.1051 23.2559 43.7637)" fill="#4285F4"/>
<circle cx="111.519" cy="84.3416" r="14.3967" transform="rotate(-180 111.519 84.3416)" fill="#FBBC04"/>
<circle cx="111.519" cy="27.6014" r="14.3967" transform="rotate(-180 111.519 27.6014)" fill="#0F9D58"/>
<rect x="151.744" y="67.543" width="55.278" height="28.7681" transform="rotate(-149.895 151.744 67.543)" fill="#0F9D58"/>
<rect x="168.049" y="68.1641" width="56.1243" height="28.614" transform="rotate(150.006 168.049 68.1641)" fill="#FBBC04"/>
<circle cx="160.603" cy="55.7615" r="14.3967" transform="rotate(-180 160.603 55.7615)" fill="#FBBC04"/>
</svg>
